<?xml version="1.0" encoding="UTF-8" standalone="no"?>
<!-- Created with Inkscape (http://www.inkscape.org/) -->
<svg
   xmlns:dc="http://purl.org/dc/elements/1.1/"
   xmlns:cc="http://creativecommons.org/ns#"
   xmlns:rdf="http://www.w3.org/1999/02/22-rdf-syntax-ns#"
   xmlns:svg="http://www.w3.org/2000/svg"
   xmlns="http://www.w3.org/2000/svg"
   xmlns:sodipodi="http://sodipodi.sourceforge.net/DTD/sodipodi-0.dtd"
   xmlns:inkscape="http://www.inkscape.org/namespaces/inkscape"
   version="1.0"
   width="563"
   height="800"
   id="svg2116"
   sodipodi:version="0.32"
   inkscape:version="0.46"
   sodipodi:docname="Ireland_stub[1].svg"
   sodipodi:docbase="/home/pavel/ostatni/wiki/stubs/evropa/irsko"
   inkscape:output_extension="org.inkscape.output.svg.inkscape">
  <metadata
     id="metadata254">
    <rdf:RDF>
      <cc:Work
         rdf:about="">
        <dc:format>image/svg+xml</dc:format>
        <dc:type
           rdf:resource="http://purl.org/dc/dcmitype/StillImage" />
      </cc:Work>
    </rdf:RDF>
  </metadata>
  <sodipodi:namedview
     inkscape:window-height="850"
     inkscape:window-width="1440"
     inkscape:pageshadow="2"
     inkscape:pageopacity="0.0"
     guidetolerance="10.0"
     gridtolerance="10.0"
     objecttolerance="10.0"
     borderopacity="1.0"
     bordercolor="#666666"
     pagecolor="#ffffff"
     id="base"
     inkscape:zoom="0.70710678"
     inkscape:cx="537.48335"
     inkscape:cy="356.28174"
     inkscape:window-x="-8"
     inkscape:window-y="-8"
     inkscape:current-layer="svg2116"
     showguides="true"
     inkscape:guide-bbox="true"
     showgrid="false" />
  <defs
     id="defs2118">
    <inkscape:perspective
       sodipodi:type="inkscape:persp3d"
       inkscape:vp_x="0 : 400 : 1"
       inkscape:vp_y="0 : 1000 : 0"
       inkscape:vp_z="563 : 400 : 1"
       inkscape:persp3d-origin="281.5 : 266.66667 : 1"
       id="perspective60" />
  </defs>
  <path
     id="path2500"
     style="fill:white;fill-opacity:1;stroke:#727271;stroke-width:7.00000048;stroke-linejoin:round;stroke-miterlimit:4;stroke-dasharray:none;stroke-opacity:1;display:inline"
     d="M 382.08577,69.133935 C 378.15024,80.112165 369.67042,56.149355 382.08577,69.133935 z " />
  <path
     id="path2502"
     style="fill:white;fill-opacity:1;stroke:#727271;stroke-width:7.00000048;stroke-linejoin:round;stroke-miterlimit:4;stroke-dasharray:none;stroke-opacity:1;display:inline"
     d="M 299.66972,46.254305 C 297.12024,50.703265 294.68866,38.974075 299.66972,46.254305 z " />
  <path
     id="path2504"
     style="fill:white;fill-opacity:1;stroke:#727271;stroke-width:7.00000048;stroke-linejoin:round;stroke-miterlimit:4;stroke-dasharray:none;stroke-opacity:1;display:inline"
     d="M 295.69331,29.782075 C 282.31301,28.594805 291.55926,21.666115 295.69331,29.782075 z " />
  <path
     id="path2506"
     style="fill:white;fill-opacity:1;stroke:#727271;stroke-width:7.00000048;stroke-linejoin:round;stroke-miterlimit:4;stroke-dasharray:none;stroke-opacity:1;display:inline"
     d="M 276.74362,64.898995 C 273.0824,69.087315 274.09187,58.832365 276.74362,64.898995 z " />
  <path
     id="path2508"
     style="fill:white;fill-opacity:1;stroke:#727271;stroke-width:7.00000048;stroke-linejoin:round;stroke-miterlimit:4;stroke-dasharray:none;stroke-opacity:1;display:inline"
     d="M 260.43244,83.387085 C 260.5985,99.396545 245.48325,77.958935 256.42113,79.043305 C 256.90721,81.236035 261.87866,80.869165 260.43244,83.387085 z " />
  <path
     id="path2510"
     style="fill:white;fill-opacity:1;stroke:#727271;stroke-width:7.00000048;stroke-linejoin:round;stroke-miterlimit:4;stroke-dasharray:none;stroke-opacity:1;display:inline"
     d="M 268.45267,73.075985 C 272.3124,86.408305 264.1418,72.450565 268.45267,73.075985 z " />
  <path
     id="path2512"
     style="fill:white;fill-opacity:1;stroke:#727271;stroke-width:7.00000048;stroke-linejoin:round;stroke-miterlimit:4;stroke-dasharray:none;stroke-opacity:1;display:inline"
     d="M 266.48192,90.851455 C 268.37328,97.758485 260.94258,88.702815 266.48192,90.851455 z " />
  <path
     id="path2514"
     style="fill:white;fill-opacity:1;stroke:#727271;stroke-width:7.00000048;stroke-linejoin:round;stroke-miterlimit:4;stroke-dasharray:none;stroke-opacity:1;display:inline"
     d="M 251.04303,227.22044 C 249.26959,232.58778 248.4286,223.00459 251.04303,227.22044 z " />
  <path
     id="path2516"
     style="fill:#009e60;fill-opacity:1;stroke:#727271;stroke-width:7.00000048;stroke-linejoin:round;stroke-miterlimit:4;stroke-dasharray:none;stroke-opacity:1;display:inline"
     d="M 182.12639,244.50206 C 184.3787,251.74882 169.73151,237.75884 182.12639,244.50206 z " />
  <path
     id="path2518"
     style="fill:#009e60;fill-opacity:1;stroke:#727271;stroke-width:7.00000048;stroke-linejoin:round;stroke-miterlimit:4;stroke-dasharray:none;stroke-opacity:1;display:inline"
     d="M 64.417026,244.84301 C 65.446926,249.1914 60.035132,243.62924 64.417026,244.84301 z " />
  <path
     id="path2520"
     style="fill:#009e60;fill-opacity:1;stroke:#727271;stroke-width:7.00000048;stroke-linejoin:round;stroke-miterlimit:4;stroke-dasharray:none;stroke-opacity:1;display:inline"
     d="M 55.461959,259.2551 C 58.759765,265.67314 49.919006,260.65885 55.461959,259.2551 z " />
  <path
     id="path2522"
     style="fill:#009e60;fill-opacity:1;stroke:#727271;stroke-width:7.00000048;stroke-linejoin:round;stroke-miterlimit:4;stroke-dasharray:none;stroke-opacity:1;display:inline"
     d="M 53.990473,264.07238 C 48.603956,269.42276 49.985179,261.96906 53.990473,264.07238 z " />
  <path
     id="path2524"
     style="fill:#009e60;fill-opacity:1;stroke:#727271;stroke-width:7.00000048;stroke-linejoin:round;stroke-miterlimit:4;stroke-dasharray:none;stroke-opacity:1;display:inline"
     d="M 58.336266,272.62354 C 55.808439,279.07259 54.713601,269.65223 58.336266,272.62354 z " />
  <path
     id="path2526"
     style="fill:#ffffff;fill-opacity:1;stroke:#727271;stroke-width:7.00000047999999970;stroke-linejoin:round;stroke-miterlimit:4;stroke-dasharray:none;stroke-opacity:1;display:inline"
     d="M 83.467754,285.46323 C 88.174488,291.43564 79.635727,297.81418 87.479081,299.07325 C 87.5284,310.46413 82.499235,315.02165 73.440684,306.01033 C 71.114985,299.55256 72.473328,291.3232 61.043386,295.46005 C 52.656174,296.85653 40.434559,292.24013 54.559562,289.24872 C 56.567645,281.5607 67.802699,291.70825 71.803175,283.03254 C 73.848541,288.38534 82.279023,280.81339 83.467754,285.46323 z " />
  <path
     id="path2528"
     style="fill:#009e60;fill-opacity:1;stroke:#727271;stroke-width:7.00000048;stroke-linejoin:round;stroke-miterlimit:4;stroke-dasharray:none;stroke-opacity:1;display:inline"
     d="M 90.922503,288.34487 C 90.847897,292.46622 86.114704,286.16886 90.922503,288.34487 z " />
  <path
     id="path2530"
     style="fill:#009e60;fill-opacity:1;stroke:#727271;stroke-width:7.00000048;stroke-linejoin:round;stroke-miterlimit:4;stroke-dasharray:none;stroke-opacity:1;display:inline"
     d="M 95.198511,290.71693 C 96.361946,297.78679 91.04884,288.76094 95.198511,290.71693 z " />
  <path
     id="path2532"
     style="fill:#009e60;fill-opacity:1;stroke:#727271;stroke-width:7.00000048;stroke-linejoin:round;stroke-miterlimit:4;stroke-dasharray:none;stroke-opacity:1;display:inline"
     d="M 120.23013,319.53046 C 118.38449,324.51276 117.44243,317.01132 120.23013,319.53046 z " />
  <path
     id="path2534"
     style="fill:#009e60;fill-opacity:1;stroke:#727271;stroke-width:7.00000048;stroke-linejoin:round;stroke-miterlimit:4;stroke-dasharray:none;stroke-opacity:1;display:inline"
     d="M 122.97211,320.93784 C 124.38823,324.85709 119.34942,319.76357 122.97211,320.93784 z " />
  <path
     id="path2536"
     style="fill:#009e60;fill-opacity:1;stroke:#727271;stroke-width:7.00000048;stroke-linejoin:round;stroke-miterlimit:4;stroke-dasharray:none;stroke-opacity:1;display:inline"
     d="M 84.135515,327.91296 C 72.011329,338.30791 70.719136,321.17701 82.399357,325.38316 C 83.014184,327.11088 86.883522,325.69866 84.135515,327.91296 z " />
  <path
     id="path2538"
     style="fill:#009e60;fill-opacity:1;stroke:#727271;stroke-width:7.00000048;stroke-linejoin:round;stroke-miterlimit:4;stroke-dasharray:none;stroke-opacity:1;display:inline"
     d="M 74.679926,345.27237 C 77.855052,351.9177 69.008236,342.81187 74.679926,345.27237 z " />
  <path
     id="path2540"
     style="fill:#009e60;fill-opacity:1;stroke:#727271;stroke-width:7.00000048;stroke-linejoin:round;stroke-miterlimit:4;stroke-dasharray:none;stroke-opacity:1;display:inline"
     d="M 67.592148,347.40428 C 60.929079,357.10572 61.523422,342.89329 67.592148,347.40428 z " />
  <path
     id="path2542"
     style="fill:#009e60;fill-opacity:1;stroke:#727271;stroke-width:7.00000048;stroke-linejoin:round;stroke-miterlimit:4;stroke-dasharray:none;stroke-opacity:1;display:inline"
     d="M 63.651816,364.16347 C 61.168516,366.82145 61.765255,361.54135 63.651816,364.16347 z " />
  <path
     id="path2544"
     style="fill:#009e60;fill-opacity:1;stroke:#727271;stroke-width:7.00000048;stroke-linejoin:round;stroke-miterlimit:4;stroke-dasharray:none;stroke-opacity:1;display:inline"
     d="M 45.032985,367.24333 C 46.408203,372.62254 38.901718,365.73684 45.032985,367.24333 z " />
  <path
     id="path2546"
     style="fill:#009e60;fill-opacity:1;stroke:#727271;stroke-width:7.00000048;stroke-linejoin:round;stroke-miterlimit:4;stroke-dasharray:none;stroke-opacity:1;display:inline"
     d="M 56.632606,361.92397 C 57.879063,372.97536 38.295342,361.19944 53.189186,362.93201 C 53.735419,361.53675 55.413801,360.59558 56.632606,361.92397 z " />
  <path
     id="path2548"
     style="fill:#009e60;fill-opacity:1;stroke:#727271;stroke-width:7.00000048;stroke-linejoin:round;stroke-miterlimit:4;stroke-dasharray:none;stroke-opacity:1;display:inline"
     d="M 59.806542,384.74522 C 54.357461,384.1496 60.399674,380.92023 59.806542,384.74522 z " />
  <path
     id="path2550"
     style="fill:#009e60;fill-opacity:1;stroke:#727271;stroke-width:7.00000048;stroke-linejoin:round;stroke-miterlimit:4;stroke-dasharray:none;stroke-opacity:1;display:inline"
     d="M 90.452078,407.67261 C 93.049655,419.7066 85.59254,409.37029 90.452078,407.67261 z " />
  <path
     id="path2552"
     style="fill:#009e60;fill-opacity:1;stroke:#727271;stroke-width:7.00000048;stroke-linejoin:round;stroke-miterlimit:4;stroke-dasharray:none;stroke-opacity:1;display:inline"
     d="M 97.138001,428.42762 C 100.08693,438.70044 91.91029,422.80924 97.138001,428.42762 z " />
  <path
     id="path2554"
     style="fill:#009e60;fill-opacity:1;stroke:#727271;stroke-width:7.00000048;stroke-linejoin:round;stroke-miterlimit:4;stroke-dasharray:none;stroke-opacity:1;display:inline"
     d="M 121.1325,430.59394 C 105.70926,435.54643 120.47078,424.05039 121.1325,430.59394 z " />
  <path
     id="path2556"
     style="fill:#009e60;fill-opacity:1;stroke:#727271;stroke-width:7.00000048;stroke-linejoin:round;stroke-miterlimit:4;stroke-dasharray:none;stroke-opacity:1;display:inline"
     d="M 112.2785,440.03465 C 112.59011,448.17943 105.56369,440.02035 112.2785,440.03465 z " />
  <path
     id="path2558"
     style="fill:#009e60;fill-opacity:1;stroke:#727271;stroke-width:7.00000048;stroke-linejoin:round;stroke-miterlimit:4;stroke-dasharray:none;stroke-opacity:1;display:inline"
     d="M 120.39978,435.59296 C 125.96076,451.02619 103.24762,439.09857 118.85975,433.26138 C 120.67408,432.43895 121.02662,434.36514 120.39978,435.59296 z " />
  <path
     id="path2560"
     style="fill:#009e60;fill-opacity:1;stroke:#727271;stroke-width:7.00000048;stroke-linejoin:round;stroke-miterlimit:4;stroke-dasharray:none;stroke-opacity:1;display:inline"
     d="M 124.54464,467.79482 C 119.4553,475.61684 102.81688,459.19836 99.910055,459.27129 C 109.16112,459.47339 117.19578,463.65676 122.43913,466.68767 C 123.25366,465.25897 125.17508,466.32419 124.54464,467.79482 z " />
  <path
     id="path2562"
     style="fill:#009e60;fill-opacity:1;stroke:#727271;stroke-width:7.00000048;stroke-linejoin:round;stroke-miterlimit:4;stroke-dasharray:none;stroke-opacity:1;display:inline"
     d="M 137.91048,477.91232 C 131.8875,488.42674 130.60252,469.87052 137.91048,477.91232 z " />
  <path
     id="path2564"
     style="fill:#009e60;fill-opacity:1;stroke:#727271;stroke-width:7.00000048;stroke-linejoin:round;stroke-miterlimit:4;stroke-dasharray:none;stroke-opacity:1;display:inline"
     d="M 136.77349,526.2889 C 132.03306,530.54643 134.5176,522.35754 136.77349,526.2889 z " />
  <path
     id="path2566"
     style="fill:#009e60;fill-opacity:1;stroke:#727271;stroke-width:7.00000048;stroke-linejoin:round;stroke-miterlimit:4;stroke-dasharray:none;stroke-opacity:1;display:inline"
     d="M 17.76472,666.24369 C 10.630018,673.66252 5.6958863,670.72851 15.624317,664.72993 C 16.602475,663.38848 18.993138,664.49077 17.76472,666.24369 z " />
  <path
     id="path2568"
     style="fill:#009e60;fill-opacity:1;stroke:#727271;stroke-width:7.00000048;stroke-linejoin:round;stroke-miterlimit:4;stroke-dasharray:none;stroke-opacity:1;display:inline"
     d="M 5.5996174,676.29289 C 8.9985351,681.59427 -0.50876843,674.47084 5.5996174,676.29289 z " />
  <path
     id="path2570"
     style="fill:#009e60;fill-opacity:1;stroke:#727271;stroke-width:7.00000048;stroke-linejoin:round;stroke-miterlimit:4;stroke-dasharray:none;stroke-opacity:1;display:inline"
     d="M 43.19819,701.09629 C 34.992693,709.73711 20.973546,707.84915 36.31014,699.53479 C 38.89811,699.89483 43.073061,699.64962 43.19819,701.09629 z " />
  <path
     id="path2572"
     style="fill:#009e60;fill-opacity:1;stroke:#727271;stroke-width:7.00000048;stroke-linejoin:round;stroke-miterlimit:4;stroke-dasharray:none;stroke-opacity:1;display:inline"
     d="M 49.31263,737.84888 C 47.37193,743.20893 45.380724,735.50297 49.31263,737.84888 z " />
  <path
     id="path2574"
     style="fill:#009e60;fill-opacity:1;stroke:#727271;stroke-width:7.00000048;stroke-linejoin:round;stroke-miterlimit:4;stroke-dasharray:none;stroke-opacity:1;display:inline"
     d="M 58.839182,762.31859 C 41.321267,774.83575 55.220101,755.86592 58.839182,762.31859 z " />
  <path
     id="path2576"
     style="fill:#009e60;fill-opacity:1;stroke:#727271;stroke-width:7.00000048;stroke-linejoin:round;stroke-miterlimit:4;stroke-dasharray:none;stroke-opacity:1;display:inline"
     d="M 104.22217,755.20341 C 99.259158,764.29156 78.822385,757.20737 96.437754,755.25721 C 98.828417,757.68451 104.89111,752.61623 104.22217,755.20341 z " />
  <path
     id="path2578"
     style="fill:#009e60;fill-opacity:1;stroke:#727271;stroke-width:7.00000048;stroke-linejoin:round;stroke-miterlimit:4;stroke-dasharray:none;stroke-opacity:1;display:inline"
     d="M 141.28531,743.47672 C 132.64908,753.07174 135.41033,741.39278 141.28531,743.47672 z " />
  <path
     id="path2580"
     style="fill:#009e60;fill-opacity:1;stroke:#727271;stroke-width:7.00000048;stroke-linejoin:round;stroke-miterlimit:4;stroke-dasharray:none;stroke-opacity:1;display:inline"
     d="M 132.4638,782.87878 C 116.30546,797.20242 135.43198,775.95841 132.4638,782.87878 z " />
  <path
     id="path2582"
     style="fill:#009e60;fill-opacity:1;stroke:#727271;stroke-width:7.00000048;stroke-linejoin:round;stroke-miterlimit:4;stroke-dasharray:none;stroke-opacity:1;display:inline"
     d="M 139.95104,779.62421 C 140.42989,783.76008 134.20598,779.55005 139.95104,779.62421 z " />
  <path
     id="path2584"
     style="fill:#009e60;fill-opacity:1;stroke:#727271;stroke-width:7.00000048;stroke-linejoin:round;stroke-miterlimit:4;stroke-dasharray:none;stroke-opacity:1;display:inline"
     d="M 144.22702,779.03736 C 139.3711,781.99049 143.7891,775.38587 144.22702,779.03736 z " />
  <path
     id="path2586"
     style="fill:#009e60;fill-opacity:1;stroke:#727271;stroke-width:7.00000048;stroke-linejoin:round;stroke-miterlimit:4;stroke-dasharray:none;stroke-opacity:1;display:inline"
     d="M 147.30108,783.14531 C 141.80026,787.30032 145.62028,778.79576 147.30108,783.14531 z " />
  <path
     id="path2588"
     style="fill:#009e60;fill-opacity:1;stroke:#727271;stroke-width:7.00000048;stroke-linejoin:round;stroke-miterlimit:4;stroke-dasharray:none;stroke-opacity:1;display:inline"
     d="M 151.27992,785.75924 C 144.89841,796.53042 146.08109,781.89595 151.27992,785.75924 z " />
  <path
     id="path2590"
     style="fill:#009e60;fill-opacity:1;stroke:#727271;stroke-width:7.00000048;stroke-linejoin:round;stroke-miterlimit:4;stroke-dasharray:none;stroke-opacity:1;display:inline"
     d="M 143.5605,792.68902 C 130.04667,803.82282 138.76954,786.38322 143.5605,792.68902 z " />
  <path
     id="path2592"
     style="fill:#009e60;fill-opacity:1;stroke:#727271;stroke-width:7.00000048;stroke-linejoin:round;stroke-miterlimit:4;stroke-dasharray:none;stroke-opacity:1;display:inline"
     d="M 137.24392,787.03842 C 135.48733,792.52762 135.05659,784.03392 137.24392,787.03842 z " />
  <path
     id="path2594"
     style="fill:#009e60;fill-opacity:1;stroke:#727271;stroke-width:7.00000048;stroke-linejoin:round;stroke-miterlimit:4;stroke-dasharray:none;stroke-opacity:1;display:inline"
     d="M 131.26064,470.94786 C 126.65379,484.4789 120.72222,467.76865 131.26064,470.94786 z " />
  <path
     id="path2596"
     style="fill:white;fill-opacity:1;stroke:#727271;stroke-width:7.00000048;stroke-linejoin:round;stroke-miterlimit:4;stroke-dasharray:none;stroke-opacity:1;display:inline"
     d="M 292.65054,713.63382 C 279.70097,724.50682 284.593,704.06632 292.65054,713.63382 z " />
  <path
     id="path2598"
     style="fill:#009e60;fill-opacity:1;stroke:#727271;stroke-width:7.00000048;stroke-linejoin:round;stroke-miterlimit:4;stroke-dasharray:none;stroke-opacity:1;display:inline"
     d="M 393.84903,3.5140152 C 385.13456,3.3239152 397.13962,8.9481552 399.1886,10.239475 C 392.54119,11.270105 402.79448,19.564205 408.17376,23.839785 C 399.43045,26.718865 399.59045,21.722305 396.10493,17.824535 C 389.52727,26.144975 377.85908,19.686145 376.77866,27.090695 C 366.43876,38.886795 385.2224,47.268185 381.47938,60.530155 C 389.02197,75.494805 369.88821,76.337585 363.31896,88.366965 C 353.75749,88.321405 383.83997,68.924685 364.22133,73.757385 C 365.64829,67.469595 385.63989,58.399545 370.46212,47.005155 C 359.77208,44.644975 371.20684,20.113005 359.29563,26.268095 C 355.64645,30.424115 337.04929,35.689715 348.76803,41.997855 C 353.07291,44.127265 353.87904,47.473845 353.01635,36.356855 C 357.28636,40.667115 360.92111,50.889775 356.36352,61.764055 C 359.61567,51.383565 346.72145,45.327685 340.64673,40.802225 C 346.31357,28.631865 342.39852,31.402135 334.36747,36.766955 C 338.24884,41.860355 342.71977,55.783505 330.9469,54.738505 C 340.15344,45.733005 329.3371,53.406585 331.3223,46.257895 C 324.57139,45.866915 327.18345,36.304255 319.10306,36.430985 C 317.63041,47.525265 307.87039,49.672615 300.79226,56.420775 C 302.35877,50.635095 303.47289,47.261015 294.88958,52.572035 C 281.70903,44.179875 282.10367,63.229915 280.48904,65.611595 C 286.36643,73.562555 269.5307,70.568675 271.09001,80.669495 C 259.53731,80.670465 272.86585,92.073215 273.15824,94.157395 C 257.22365,93.167285 270.60514,111.50227 276.99269,103.68534 C 288.37813,108.35892 274.29399,105.87686 273.0824,112.16719 C 288.61875,117.68501 269.29851,115.05344 262.44172,114.63253 C 247.2074,116.99271 258.34379,121.7574 266.46507,128.3453 C 279.92838,137.27907 244.11649,121.89237 259.50964,129.57797 C 274.27836,140.04101 242.93139,123.18489 237.1382,132.75354 C 232.1018,139.90459 220.63452,143.14946 224.57967,149.68018 C 229.03856,159.96027 247.7055,166.49194 260.75009,159.61812 C 257.27418,169.57908 280.04626,153.55508 269.73644,165.89536 C 256.74601,177.24311 273.10168,168.45763 277.78194,161.56102 C 288.81848,147.74672 280.07755,172.3003 291.46782,161.52395 C 299.99455,151.81184 312.02492,162.30009 301.92082,163.46685 C 298.7818,165.44344 288.29992,180.6816 285.71554,190.2563 C 276.79175,195.23497 262.04589,190.95685 262.29133,197.39305 C 258.19217,207.53671 249.10958,209.02285 240.07149,213.31043 C 234.11467,228.30724 251.06231,214.56587 259.13306,222.50129 C 256.54025,225.39942 244.95869,220.53561 256.53904,227.20856 C 275.00386,235.35917 234.75596,228.63485 249.01933,236.7365 C 261.55859,245.64992 252.4808,249.543 244.16941,240.88425 C 238.74562,225.97953 223.53773,238.02175 212.88741,233.74751 C 203.21045,223.35862 188.11809,228.60383 187.28191,242.56522 C 184.85633,252.17942 182.64373,254.07434 175.02536,246.03981 C 171.14041,242.79954 177.24278,232.31735 171.52899,231.95388 C 169.3814,231.7542 160.09905,215.96962 153.97018,226.76125 C 138.48318,221.10725 120.39497,226.8761 102.72303,218.35379 C 89.334331,221.19327 97.852676,229.90459 102.91194,229.59975 C 110.01776,239.47688 102.2598,230.21307 95.392233,232.73947 C 94.065127,240.57336 88.990227,250.42407 81.630539,241.78083 C 84.654071,242.93814 97.566298,235.56611 83.962248,233.97214 C 78.780257,222.73562 76.215142,228.68501 68.809719,234.83189 C 68.020466,236.86444 68.883107,240.59008 65.501065,239.91329 C 74.974689,243.53618 64.883842,253.21242 63.207857,263.75058 C 65.834325,275.57787 72.147282,265.53331 69.524397,262.59206 C 69.779475,256.98458 69.956347,250.55443 77.04413,250.52341 C 70.408732,236.93375 89.860109,248.69997 83.886464,252.50461 C 84.678133,253.61176 83.418435,258.91198 87.495906,262.1067 C 89.342755,264.34377 73.579036,269.68688 85.540802,275.07216 C 91.066906,273.02166 98.184725,259.15696 96.068394,266.96323 C 96.719299,273.66235 84.898321,279.87611 93.962876,286.99008 C 99.383074,292.77226 97.575956,297.06468 103.13692,297.37776 C 105.30621,310.7176 102.64844,300.76391 95.917987,297.37776 C 87.19393,292.61088 80.758236,321.32507 93.849756,315.12584 C 104.81772,309.15004 122.26586,306.29724 130.28369,310.90273 C 131.72627,316.89646 126.33975,319.14202 125.17026,323.56941 C 135.94332,327.91296 129.41863,335.56148 116.25851,332.53663 C 102.6749,332.85455 83.122463,334.50812 88.999861,353.1242 C 97.307637,366.99107 87.370803,370.71914 73.434656,368.03256 C 77.064585,374.89791 77.468836,377.39305 66.403414,375.09394 C 69.541249,378.92596 45.209856,379.11375 60.124161,380.51144 C 61.365823,387.57404 71.965616,393.89417 70.237865,399.75391 C 63.841907,395.98053 50.853873,407.47415 62.493178,406.74114 C 70.192152,402.05181 74.061515,411.74379 82.11903,414.51276 C 87.37441,412.60208 96.488283,396.17172 93.51168,409.69306 C 101.62936,404.40253 100.12782,406.05732 103.5135,409.16941 C 103.80104,415.69406 87.877329,414.25202 90.203027,423.62948 C 94.338247,424.56556 102.15274,429.20837 108.73881,428.29967 C 111.18001,422.49132 126.82342,404.06062 121.14693,420.75268 C 119.41439,429.76304 131.30635,409.02474 129.45592,423.74192 C 124.28356,424.41726 122.28271,440.6637 126.97501,441.7505 C 131.92839,436.1263 131.90914,429.4582 132.68999,441.52563 C 153.59719,445.10055 178.50609,440.55248 199.05117,435.36106 C 217.97556,433.9263 190.70966,444.25292 203.44989,447.35555 C 217.64351,442.74279 202.19622,451.14928 207.43474,459.722 C 206.26408,462.22685 198.62282,450.01475 190.25249,456.65886 C 205.75513,459.21144 195.20226,460.29823 185.70336,458.11641 C 190.19954,462.02014 178.15719,467.24863 169.79887,459.05006 C 162.53063,461.46766 159.37115,474.43069 153.85709,481.43102 C 154.03396,488.49604 135.85189,503.27888 147.05206,501.90518 C 166.76813,499.03081 145.01751,512.07163 145.47232,519.42961 C 140.3625,525.92058 141.5392,544.27833 128.85433,539.30694 C 117.86232,552.18154 104.67334,567.95305 86.556242,575.54899 C 94.416453,577.22413 113.2314,575.32044 115.43195,567.03007 C 125.85127,566.43347 131.53497,561.60552 132.08844,554.92433 C 135.21182,568.62255 155.05783,567.26679 166.15211,561.16425 C 159.02463,565.41478 158.85257,575.34325 167.91955,566.50763 C 181.19033,565.79613 192.48795,552.98845 194.84011,540.9879 C 201.5934,526.93565 210.85171,544.66822 204.08876,551.78583 C 211.21625,547.04633 239.37727,553.04007 222.85074,557.01675 C 211.44726,547.74445 200.57677,566.16206 192.77189,564.00396 C 182.12035,564.08056 163.37885,578.17691 151.2258,572.52288 C 141.98195,578.07176 128.00009,569.6042 119.41678,576.59504 C 109.97684,583.56559 129.38613,595.56613 117.12358,591.27879 C 107.92065,597.14092 97.342551,602.79613 85.991974,603.75867 C 86.938852,611.02815 104.94647,608.02343 98.58779,622.14157 C 86.896747,631.98282 96.922631,631.89199 108.32613,632.75268 C 110.91052,644.07065 97.561497,630.95446 95.12873,639.47825 C 78.80314,646.35057 77.852632,626.92759 73.396159,624.90696 C 76.744519,629.58682 69.714489,640.69906 59.899179,639.55359 C 63.750457,627.39506 49.29096,627.36887 42.07684,637.79729 C 30.21737,637.41224 38.324227,652.93513 29.894909,650.94911 C 25.377087,639.53079 16.88041,662.41171 25.195396,666.82842 C 37.587879,665.15084 32.454019,658.88086 44.78396,663.91336 C 41.110715,658.94677 45.101579,659.41541 51.063213,661.52216 C 57.198088,668.89922 77.571087,650.46733 83.736057,663.09183 C 81.689499,657.94962 91.159538,651.37002 98.324311,658.72066 C 114.91821,656.38813 93.908717,667.87936 90.767295,660.17827 C 88.637715,665.28603 85.625011,680.66886 83.209069,668.35988 C 81.440448,679.26056 63.714381,677.64039 54.522299,684.01552 C 50.36897,686.03379 41.310444,691.79077 43.805802,694.8886 C 60.260114,707.33041 27.992732,703.24731 32.301239,713.15911 C 37.021211,715.10078 38.527539,719.9767 37.941622,726.94599 C 45.296489,722.00567 57.626406,702.68052 56.891292,724.74236 C 44.175162,730.52576 65.414433,727.84263 62.71816,735.80198 C 71.859735,730.56265 86.579125,721.40175 94.113258,722.01384 C 99.556317,721.77712 113.54781,709.9154 127.98927,709.38572 C 125.79231,715.89463 106.72232,715.31014 102.76032,725.938 C 105.94508,732.8811 96.876896,727.34779 93.286698,734.30741 C 91.842914,732.09434 85.80307,733.07347 79.675435,738.86513 C 87.699245,742.1149 77.957319,750.84773 68.395855,748.65503 C 68.026471,751.57953 74.90009,759.98244 62.380082,759.52685 C 55.538931,767.55195 64.306327,761.88337 71.779108,762.6283 C 85.07638,762.54226 90.136853,748.86077 106.03171,750.74746 C 118.15829,748.45173 134.29499,743.44566 133.51658,732.55111 C 134.4454,744.72026 147.94959,734.39581 144.34494,743.46115 C 135.69548,753.7878 115.62446,755.824 104.97896,765.91629 C 95.498091,773.8423 99.476925,775.33813 109.34036,769.09214 C 114.15061,767.59875 137.54352,754.86029 129.41863,761.61928 C 123.19349,775.0786 98.167877,777.95269 100.50561,789.75382 C 103.37275,791.41082 112.58888,791.14182 114.04112,785.23294 C 120.13868,771.89214 123.12973,788.10362 129.11781,780.41342 C 132.84038,776.17728 146.03177,778.36416 145.8489,770.2877 C 154.4009,774.54161 145.63592,783.00068 154.34676,787.40072 C 164.20301,782.42201 165.49879,780.70645 172.31828,784.41173 C 174.11458,774.51299 182.22505,780.58455 185.2895,771.70795 C 179.32062,763.81686 195.96386,773.55541 199.69001,767.93338 C 205.97893,778.03047 208.98681,773.85418 215.33103,766.43897 C 222.16254,759.29013 228.12296,769.49606 235.93503,767.29848 C 232.06809,756.19717 247.55148,748.1469 253.26767,759.52685 C 253.45055,759.05341 256.91325,744.64248 255.67398,742.04074 C 262.35269,750.52254 266.19438,741.28999 275.75221,739.61242 C 283.30202,734.2846 287.98831,723.30764 280.86561,715.13908 C 282.48988,705.85251 266.56614,716.07512 271.76617,707.21795 C 278.48337,713.95776 300.16903,702.91606 296.84471,711.92643 C 276.53788,724.49958 296.42121,727.6943 305.0033,721.60269 C 320.16424,724.1732 312.82259,711.73745 324.96842,709.72162 C 340.10533,711.87508 325.13086,702.13048 331.99969,702.28604 C 332.84068,684.58475 350.72315,703.87254 353.12945,690.36792 C 365.09,689.6458 368.76083,682.82601 374.14737,675.16071 C 366.8719,676.23445 362.32035,661.98593 372.45572,669.36913 C 383.7389,655.27616 406.04781,661.9227 419.79142,656.8902 C 427.35325,655.83564 423.22041,651.55051 429.71743,652.77957 C 421.92821,661.25075 438.07815,661.95124 441.82476,654.01249 C 444.65459,649.06477 442.35177,640.57354 439.71924,631.03342 C 442.14361,633.79661 452.71813,645.86164 450.66075,654.57315 C 439.70363,667.50493 456.41905,652.93631 460.21018,649.86467 C 460.73114,641.19987 458.18527,641.79773 467.72989,634.65856 C 464.63297,643.64849 461.85728,646.20956 474.15955,643.32698 C 485.34887,648.00542 493.95745,654.50481 503.48643,644.70917 C 499.82522,651.97024 514.41226,642.4195 512.05891,648.3701 C 516.4456,655.59892 527.20781,633.77506 514.46519,631.96859 C 513.04068,629.28317 513.51229,626.61671 514.46519,623.97203 C 512.51009,626.97777 504.75937,626.59634 506.94549,617.13533 C 514.42912,613.62391 517.76424,621.0834 516.57073,607.4579 C 525.50534,591.79156 541.93682,577.46785 533.2645,558.02576 C 540.92738,545.74775 541.42065,532.902 547.06346,520.13863 C 551.44896,513.28395 565.1156,497.61882 555.63592,491.89285 C 554.67823,476.35689 557.00993,459.66094 547.96584,446.19703 C 551.91217,431.25159 539.51727,430.76138 533.45217,419.40661 C 536.63693,407.26237 550.1291,417.55555 553.9058,412.53157 C 553.57133,410.77161 551.2709,410.82177 549.88365,410.51452 C 536.84988,405.43311 548.87179,389.33036 550.55981,378.75488 C 544.25049,367.79339 528.96561,361.21979 529.65504,344.19405 C 533.54,331.71517 528.74663,328.55389 530.2193,317.33045 C 519.68808,315.94827 509.11838,304.56127 515.36756,291.28734 C 517.052,274.56741 534.4508,298.60922 544.88214,288.41054 C 547.64458,281.08382 526.65436,274.01032 529.9558,269.84124 L 528.0753,268.60857 C 527.14403,266.02958 524.42732,265.70197 523.03767,268.08492 C 521.7888,270.85026 517.71733,266.77447 517.135,270.40196 C 518.03619,273.79999 513.87807,273.77721 511.98429,275.40801 C 510.62595,273.53562 507.57596,277.49219 506.457,274.13705 C 505.36454,272.08074 502.95704,271.47931 501.79477,273.8012 C 500.30288,275.88877 498.24908,276.95157 495.70321,276.04288 C 493.59289,277.15003 490.50198,276.80327 489.12438,278.91968 C 484.61133,280.00768 484.39598,274.06532 481.67925,271.89658 C 479.62306,267.95334 482.03779,264.05445 483.78476,260.64915 C 484.52591,256.9068 483.20367,252.09437 479.94911,249.96391 C 477.47423,249.35763 473.58082,245.23629 472.24173,249.44002 C 470.79673,252.28337 469.07741,247.75542 467.27872,247.2354 C 462.8535,244.74002 460.10549,239.86798 460.28597,234.83189 C 459.02867,232.38205 455.2568,230.07931 457.38999,226.94783 C 456.29271,223.78776 456.08695,219.32693 452.99124,217.49525 C 449.94728,217.92682 451.58356,213.45145 449.34449,212.18898 C 447.01639,210.82352 445.99974,207.84155 443.9303,206.50977 C 440.32323,207.17203 437.95542,201.50494 434.38086,203.52054 C 432.23082,207.84882 428.54196,211.11527 426.22108,215.36455 C 424.30084,217.94475 421.75256,220.16632 418.47637,220.74497 C 418.39576,223.27599 416.66922,224.76454 414.71652,226.20052 C 412.42449,229.24598 419.86359,228.3397 418.06248,231.95388 C 419.53876,233.59437 421.96312,235.40812 420.5061,238.08161 C 420.34486,240.00052 422.00281,243.51462 418.73984,243.87325 C 416.41296,243.60185 414.91382,245.15729 412.64829,244.88226 C 412.39803,247.47457 411.44275,249.91351 408.81384,250.8222 C 408.46251,253.14311 410.95785,255.87622 408.36146,257.77235 C 407.86696,260.8023 405.81198,264.3067 402.30839,263.90009 C 399.91291,266.22562 398.52448,263.57006 396.74379,262.21913 C 396.5176,258.2759 392.79024,261.85808 390.61495,260.61208 C 386.71912,259.42715 391.93479,258.37379 391.40541,255.9036 C 390.49943,252.80096 387.08366,255.38843 386.10311,257.17456 C 383.54881,259.03265 382.41785,262.71055 379.07307,263.26522 C 376.77626,262.22495 374.67674,260.60966 372.04186,261.80767 C 368.80174,262.23222 368.64654,257.36478 365.12371,258.22089 C 362.32756,256.20383 363.93979,251.58259 360.34839,250.00098 C 357.54505,252.72343 357.4127,248.62583 355.83657,247.12418 C 349.44059,245.73594 342.45268,246.29328 336.32381,244.28446 C 333.94397,239.59658 336.04709,233.09931 332.03695,229.26391 C 327.45656,228.59438 324.72661,224.45971 322.29866,221.00668 C 321.30123,218.40976 321.07022,214.86489 317.44872,214.84212 C 312.35939,213.51858 309.96993,208.26609 306.77075,204.60394 C 305.21025,202.19481 302.93869,200.24101 300.94267,198.32669 C 304.4378,196.99007 298.94543,194.72682 300.19067,193.3948 C 303.54148,192.91186 307.05107,192.08556 308.80045,188.98656 C 311.53042,189.47555 314.26038,187.52659 313.27498,184.42759 C 313.57696,181.54255 317.00837,179.90932 319.10306,178.07644 C 321.1701,175.12913 322.18675,177.92693 324.17917,178.74838 C 328.25185,178.26641 332.36181,179.01736 336.39841,178.41229 C 336.0928,176.08676 340.59258,176.77083 340.94754,174.11526 C 343.44888,168.61901 349.39969,166.92836 353.95725,163.65344 C 356.02787,162.73651 354.02099,157.51262 352.2656,160.5903 C 349.64392,163.47412 347.79346,158.69876 344.93359,158.61031 C 342.05683,157.09292 338.71326,157.20657 335.64642,157.63813 C 334.68872,153.82647 330.98902,152.14309 328.3517,149.68018 C 330.17569,147.91901 329.62343,145.13066 332.30045,143.7761 C 333.7587,141.46487 333.31111,136.28073 337.15038,136.07984 C 341.28201,136.45762 343.21186,141.04881 346.55061,142.80513 C 350.52102,145.48347 352.90689,139.99061 356.51393,139.25542 C 359.13319,137.9927 360.78513,133.53671 364.22133,135.66839 C 366.85865,135.74011 369.60305,134.90097 372.04186,136.49106 C 376.21196,137.01713 373.94282,132.06972 375.20013,129.80284 C 376.21077,126.51604 376.2577,122.22241 377.83262,119.56443 C 380.43141,118.35332 382.31798,116.27181 382.26865,113.25035 C 385.12373,111.20228 385.89616,107.28666 386.17891,104.09655 C 384.91197,101.21152 386.47247,98.124375 386.3293,95.129325 C 387.94753,93.517675 389.9977,92.335165 390.31413,89.673785 C 387.97042,87.742755 393.69141,85.594125 389.33718,84.518235 C 388.62733,82.424605 391.82288,80.766185 392.38236,78.651235 C 394.35795,76.075885 395.68501,71.254995 399.90206,72.785445 C 402.07135,70.559125 403.71848,74.135155 405.73017,71.926935 C 406.59763,71.216735 407.79716,70.462275 408.96301,70.693035 L 410.46697,69.460335 C 407.18117,59.929945 426.94655,46.041475 437.42604,40.802225 C 456.41541,36.564885 440.62041,24.829755 431.67377,25.895075 C 418.37291,18.709305 412.17065,2.9652052 393.84903,3.5140152 z M 266.80317,234.68116 C 265.21259,237.29359 279.9428,231.9277 280.00058,236.96137 C 275.5152,242.26862 260.66828,240.46335 266.80317,234.68116 z M 102.98651,245.44201 C 104.79848,245.43717 106.87392,246.09482 108.25032,246.89932 C 110.02618,259.42254 100.1916,250.66082 101.3322,245.70371 C 101.84233,245.54233 102.38254,245.4454 102.98651,245.44201 z M 309.8917,255.41824 C 311.38243,255.41461 313.63834,255.73277 316.96023,256.42749 C 318.45336,263.97182 311.28377,286.133 310.04211,267.93541 C 311.39927,261.40834 303.42838,255.43738 309.8917,255.41824 z M 164.76128,268.19712 C 167.2554,268.07644 171.07782,270.26917 173.25795,274.6607 C 164.12239,283.00637 185.55418,287.51857 172.28097,291.28734 C 163.16108,291.27644 160.9232,274.95003 165.85132,277.64993 C 160.83177,271.43012 161.93385,268.33354 164.76128,268.19712 z M 289.10002,282.54476 C 290.37176,282.55905 292.08144,283.71879 294.25071,286.87885 L 293.64915,287.21495 L 293.46025,288.11176 C 285.79253,297.12308 284.54971,282.4946 289.10002,282.54476 z M 177.88286,290.42881 C 179.04753,290.23156 180.32888,291.79548 181.11694,296.81704 C 172.65396,302.7749 174.90626,290.92387 177.88286,290.42881 z M 265.86349,293.1561 C 266.77911,293.11417 268.02917,293.50043 269.77375,294.5012 C 271.22836,293.69162 271.70361,295.45158 270.45111,296.06973 C 266.92831,302.7594 267.30728,309.18469 260.4493,301.89844 C 264.29939,301.49547 261.8979,293.33541 265.86349,293.1561 z M 403.62462,323.23332 C 404.68101,323.45213 407.71174,323.93168 406.89602,325.73695 C 403.07361,336.90174 388.09913,330.42628 403.62462,323.23332 z M 166.07751,338.62704 C 167.33842,338.68811 170.03349,346.44422 171.07782,346.54817 C 171.46163,344.88975 174.26017,343.98227 173.82222,346.54817 C 169.86504,360.02904 167.39496,352.88018 165.51325,344.75478 C 165.20763,340.15268 165.50121,338.59966 166.07751,338.62704 z M 161.97837,352.22738 C 162.42233,352.22399 162.87954,352.28966 163.37044,352.45104 C 165.1932,361.43982 163.66278,370.19064 160.51173,375.95369 C 153.23025,382.99956 142.308,368.32674 144.38225,369.93839 C 153.47449,369.88702 155.31531,352.28844 161.97837,352.22738 z M 394.3002,354.61881 C 395.09188,354.57931 396.0255,354.82308 397.00727,355.47831 C 403.84,363.48207 406.6289,370.17877 396.18071,360.52167 C 388.98947,363.36237 390.02538,354.83157 394.3002,354.61881 z M 316.35867,355.32904 C 317.0565,355.36127 317.91555,355.71748 318.98996,356.44928 C 316.09157,364.16952 322.3552,376.98426 326.35928,379.5034 C 331.53646,376.33752 338.19713,375.63189 336.3611,380.43729 C 323.95777,384.87195 333.1932,396.45039 328.91597,397.17613 C 319.772,400.28943 321.42275,392.1221 319.78045,390.48767 C 321.65856,379.17821 317.38857,378.57194 312.56151,372.51617 C 314.82104,370.03774 311.47386,355.09812 316.35867,355.32904 z M 392.68315,370.75984 C 406.63133,387.69471 380.56018,371.34335 392.68315,370.75984 z M 165.58784,383.61287 C 171.49773,383.54599 174.30828,386.47028 174.38652,394.22397 C 170.40166,404.53047 192.58178,404.14179 194.01234,407.07724 C 181.46948,412.70506 203.62916,428.20154 185.70336,428.0748 C 177.37271,418.86018 190.41612,406.46974 174.64878,405.99383 C 164.39429,405.93398 157.8648,391.94158 142.8037,391.83277 C 145.92831,384.31705 156.77592,394.86126 151.52656,386.60186 C 157.3775,384.78447 162.04215,383.65358 165.58784,383.61287 z M 394.75138,391.68327 C 395.18812,391.69417 395.61883,391.7407 396.10493,391.7957 C 391.0697,411.4913 381.2135,391.35687 394.75138,391.68327 z M 296.84471,473.09867 C 298.12126,473.13454 299.06574,473.8186 299.43871,475.86304 C 284.895,479.51453 284.62428,493.60507 287.55757,502.95248 C 280.98595,505.99066 286.27741,511.5252 274.0979,508.36998 C 272.56627,514.2394 262.70882,532.4668 264.47266,517.03817 C 275.30465,507.40628 249.72799,510.02356 266.16429,503.84929 C 277.90226,505.97152 283.5631,497.80298 276.61609,488.08119 C 286.42058,487.80858 281.56465,479.46679 286.9187,474.14501 C 289.96869,475.48526 293.67562,473.37856 296.28044,473.13575 C 296.47654,473.11782 296.66183,473.09286 296.84471,473.09867 z M 514.91639,622.81477 C 514.77441,623.13997 514.63124,623.54538 514.50251,623.89795 C 514.69981,623.57393 514.87068,623.2032 514.91639,622.81477 z M 130.24519,673.33025 C 130.35589,673.30508 130.45695,673.32183 130.58448,673.33025 C 131.72145,673.39356 133.57072,674.54382 136.22365,677.43953 C 137.26319,678.56699 141.10846,678.4701 139.87041,680.65218 C 131.6192,686.11283 126.84027,673.85756 130.24519,673.33025 z " />
  <path
     style="opacity:1;fill:white;fill-opacity:1;fill-rule:nonzero;stroke:none;stroke-width:7;stroke-linecap:round;stroke-linejoin:round;stroke-miterlimit:4;stroke-dasharray:none;stroke-opacity:1"
     d="M 386.69679,22.523995 L 378.61754,23.801985 L 372.8221,35.426715 L 382.37476,57.250725 L 381.80995,60.716025 L 383.13603,66.983055 L 382.3502,70.841585 L 362.23805,87.209595 L 370.8821,73.028905 L 364.17805,72.881445 L 375.52337,58.971085 L 375.76894,52.138795 L 367.02666,45.675155 L 363.1221,25.079965 L 346.30058,34.541955 L 345.78488,38.941165 L 352.83273,44.348015 L 353.83957,36.876735 L 357.98969,44.200555 L 356.9583,60.347375 L 356.19703,54.891375 L 353.52032,50.344705 L 340.25956,41.226785 L 342.02766,31.789375 L 333.94842,36.508085 L 337.7302,43.487835 L 338.22134,50.467585 L 332.42589,54.399845 L 333.92387,50.541315 L 330.90336,49.238755 L 331.3945,46.191255 L 328.595,45.159045 L 319.7545,36.557235 L 316.21829,44.372595 L 301.58234,55.456635 L 300.82108,49.484525 L 294.75551,52.384565 L 284.39247,52.728635 L 280.46335,65.336425 L 281.3474,70.128865 L 272.13854,74.773835 L 270.86158,80.180685 L 265.55727,82.810385 L 273.36639,93.402895 L 266.41677,95.393595 L 266.04841,101.4886 L 272.72791,105.69119 L 277.19728,104.04456 L 279.9231,106.45307 L 273.19449,110.7294 L 276.65702,115.27607 L 262.61044,115.52183 L 254.21196,118.02865 L 267.91474,130.66101 L 256.37297,127.24487 L 261.99651,133.16783 L 240.87752,130.39067 L 223.54031,145.8002 L 226.11879,153.2469 L 234.2717,159.41563 L 247.58158,162.95466 L 260.15474,160.03004 L 261.11246,163.32331 L 271.45095,161.45549 L 270.29677,168.48439 L 281.98588,158.1868 L 286.50437,164.6996 L 296.44994,158.45714 L 302.34361,157.64611 L 305.4869,161.01311 L 301.04209,163.74111 L 285.59576,190.33299 L 264.62411,194.19151 L 256.02917,206.25862 L 240.21449,213.28752 L 238.93752,220.43931 L 253.40158,219.35794 L 258.31297,222.35629 L 252.22284,223.43766 L 260.5231,230.56487 L 246.0836,233.71067 L 254.85044,242.38621 L 254.5312,245.90066 L 247.58158,244.03284 L 237.24309,233.39118 L 213.81575,234.44797 L 202.96157,227.73856 L 202.96157,434.52603 L 205.04891,437.05741 L 202.96157,439.26931 L 202.96157,447.15839 L 209.27271,446.71602 L 206.32587,458.26702 L 202.96157,458.21786 L 202.96157,537.13331 L 206.00663,541.77828 L 206.03119,549.17584 L 227.81322,553.32928 L 224.42436,556.96662 L 214.82258,553.9437 L 202.96157,560.82514 L 202.96157,772.3313 L 206.00663,773.92882 L 218.7517,764.07357 L 232.74917,767.48968 L 235.79423,766.31 L 234.93474,759.74809 L 245.46968,753.03864 L 253.32791,759.01079 L 256.20107,743.38008 L 261.38259,746.47673 L 281.20006,734.40966 L 284.76082,722.53912 L 280.85626,716.00175 L 280.68436,711.97119 L 272.11398,711.16012 L 272.85069,708.75169 L 294.87829,708.38301 L 297.28487,711.77458 L 287.92867,720.69584 L 293.18386,724.43148 L 304.87298,721.92475 L 312.63298,721.38399 L 320.39298,711.55335 L 331.9102,709.58722 L 330.75602,705.11436 L 334.9307,694.74296 L 350.91729,695.45572 L 353.32387,690.07348 L 364.47273,687.73867 L 372.77299,676.13851 L 368.57374,673.8037 L 367.41957,667.02056 L 372.06083,668.88838 L 386.69679,660.26203 L 386.69679,256.1491 L 379.37881,263.05513 L 375.08134,261.33477 L 371.2259,261.80172 L 364.49729,257.64828 L 361.37855,251.08633 L 357.57222,251.16006 L 356.4426,247.47357 L 336.01121,243.95911 L 333.08893,230.09791 L 324.81323,224.61733 L 320.29475,216.08926 L 312.58386,212.4765 L 299.71601,194.04405 L 308.26184,189.34992 L 311.9945,188.07194 L 312.85399,183.54985 L 320.31931,177.45485 L 335.64285,178.46249 L 344.72893,170.03272 L 353.98691,163.02839 L 350.57349,161.55379 L 346.61982,158.65376 L 336.08488,157.00712 L 328.37399,149.29007 L 336.74792,135.5026 L 349.0264,143.49 L 361.354,134.76531 L 373.48514,136.82974 L 376.7021,120.63376 L 384.73223,110.50821 L 386.69679,93.574925 L 386.69679,22.523995 z M 266.4397,234.58071 L 280.35034,235.47367 L 274.81844,240.10875 L 265.54746,239.2158 L 266.4397,234.58071 z M 308.00156,256.19174 L 317.65077,257.08469 L 314.97405,271.00316 L 311.57053,274.57498 L 308.00156,256.19174 z M 288.72762,282.07416 L 294.27581,287.2533 L 291.06374,290.65625 L 286.76469,289.94189 L 288.72762,282.07416 z M 264.28033,293.14509 L 270.70276,295.28818 L 266.06311,305.4776 L 261.42516,302.79874 L 264.28033,293.14509 z M 314.78424,354.58986 L 318.53796,356.01859 L 320.144,370.59542 L 325.6759,379.10017 L 336.20436,377.24663 L 336.24897,380.17647 L 329.51254,385.96378 L 329.95866,395.39528 L 326.74658,397.98223 L 321.38682,395.66054 L 319.60235,381.64246 L 312.99975,372.62493 L 314.78424,354.58986 z M 286.9564,473.52911 L 297.31272,473.52911 L 297.04504,476.58797 L 288.0334,484.11161 L 286.33814,497.35016 L 287.67651,502.19494 L 280.98469,509.00421 L 273.75753,508.66985 L 267.33339,522.47093 L 263.40122,520.32785 L 267.68398,512.72632 L 261.61673,507.26789 L 265.18571,504.20902 L 273.03743,503.80621 L 279.99692,498.49214 L 277.49864,488.71329 L 281.95985,485.76457 L 286.9564,473.52911 z "
     id="rect3386"
     sodipodi:nodetypes="ccccccccccccccccccccccccccccccccccccccccccccccccccccccccccccccccccccccccccccccccccccccccccccccccccccccccccccccccccccccccccccccccccccccccccccccccccccccccccccccccccccccccccccccccccccccccccccccccccccccccccccccccccccccccccc" />
  <path
     sodipodi:nodetypes="cccccccccccccccccccccc"
     id="path3384"
     d="M 397.07347,13.548085 L 398.65006,10.915285 L 392.14656,3.4120552 L 409.65455,7.1176952 L 430.07742,24.742945 L 439.91011,27.637035 L 446.06252,32.916965 L 445.04238,38.031105 L 428.64182,45.577275 L 414.02122,58.729835 L 409.3749,70.514675 L 404.39294,72.260465 L 396.76748,73.356365 L 389.76288,82.347785 L 390.79537,85.711285 L 388.29709,93.051565 L 386.69106,100.19972 L 386.69106,21.886915 L 395.7027,18.271585 L 402.21144,24.601405 L 406.85572,24.063215 L 397.07347,13.548085 z "
     style="opacity:1;fill:#f77f00;fill-opacity:1;fill-rule:nonzero;stroke:none;stroke-width:7;stroke-linecap:round;stroke-linejoin:round;stroke-miterlimit:4;stroke-dasharray:none;stroke-opacity:1" />
  <path
     style="opacity:1;fill:#ffffff;fill-opacity:1;fill-rule:nonzero;stroke:none;stroke-width:7;stroke-linecap:round;stroke-linejoin:round;stroke-miterlimit:4;stroke-dasharray:none;stroke-opacity:1"
     d="M 435.24591,202.64586 L 423.85147,218.39946 L 419.87325,219.84947 L 414.22514,225.6987 L 420.68363,235.30815 L 420.31527,242.55825 L 413.14464,244.54895 L 405.974,262.53902 L 399.78565,263.79243 L 395.51274,260.08136 L 390.23299,260.17967 L 390.89603,254.82197 L 386.69679,256.7881 L 386.69679,660.38496 L 412.11324,658.91036 L 423.7778,655.78909 L 428.59097,652.64329 L 427.31401,656.82131 L 431.21856,659.30359 L 440.5011,657.09161 L 443.76717,648.83388 L 440.69755,633.3507 L 450.98692,647.3839 L 449.12059,658.27129 L 460.5887,649.74325 L 460.95705,639.96177 L 466.87528,636.25066 L 465.22996,644.38556 L 475.17553,643.45164 L 491.18667,650.08732 L 503.17047,646.62206 L 512.37934,646.42545 L 514.24567,649.79241 L 520.16389,643.79572 L 520.53225,634.75153 L 514.85959,631.80234 L 514.46668,625.04374 L 508.27832,624.35559 L 506.87858,616.83523 L 516.30845,615.65556 L 517.48718,606.70968 L 534.08769,580.2898 L 536.29782,568.76341 L 533.20364,556.47509 L 541.20921,540.9181 L 546.95554,519.2907 L 557.98162,503.48795 L 558.91479,495.25479 L 555.0839,490.80643 L 553.75782,457.30853 L 547.88871,445.266 L 548.47808,438.31082 L 545.75225,431.94548 L 533.10541,419.33769 L 538.65529,412.75116 L 552.40719,414.02915 L 545.18744,406.26294 L 544.15605,397.68571 L 550.93377,379.47445 L 533.62111,358.85469 L 529.66744,343.02736 L 531.77934,335.03997 L 530.67428,326.78224 L 529.59377,318.5245 L 518.91149,311.20068 L 513.43529,301.49292 L 517.56086,285.22322 L 539.93225,291.5394 L 545.40845,287.26307 L 543.56668,282.79013 L 531.60744,274.5324 L 529.24997,269.56792 L 525.88567,266.8645 L 523.03706,268.95351 L 517.56086,268.28994 L 517.41351,272.39423 L 508.15554,275.26969 L 504.22642,272.07474 L 500.76389,275.19596 L 487.47857,279.05449 L 480.77452,268.04418 L 484.38439,259.78644 L 481.95326,251.03717 L 474.48794,247.32611 L 471.5411,250.44733 L 463.56009,243.46758 L 457.76464,229.99961 L 456.04566,221.15203 L 443.79173,206.20947 L 435.24591,202.64586 z M 402.07527,323.33578 L 407.12138,324.85118 L 400.81229,331.93652 L 396.01853,329.66343 L 402.07527,323.33578 z M 393.24622,353.89391 L 402.84585,362.48115 L 402.59349,365.26345 L 390.97494,359.20187 L 393.24622,353.89391 z M 388.71463,372.32898 L 392.49689,370.05589 L 397.03944,376.39082 L 394.77137,378.91647 L 388.71463,372.32898 z M 388.95185,393.03918 L 396.28128,391.27122 L 391.73873,400.37971 L 388.19476,397.85406 L 388.95185,393.03918 z "
     id="path3333"
     sodipodi:nodetypes="cccccccccccccccccccccccccccccccccccccccccccccccccccccccccccccccccccccccccccccccccccccccccccccccccccccccccccccc" />
  <path
     id="path3417"
     style="fill:#ffffff;fill-opacity:1;stroke:#727271;stroke-width:7.00000047999999970;stroke-linejoin:round;stroke-miterlimit:4;stroke-dasharray:none;stroke-opacity:1;display:inline"
     d="M 393.84903,3.5140152 C 385.13456,3.3239152 397.13962,8.9481552 399.1886,10.239475 C 392.54119,11.270105 402.79448,19.564205 408.17376,23.839785 C 399.43045,26.718865 399.59045,21.722305 396.10493,17.824535 C 389.52727,26.144975 377.85908,19.686145 376.77866,27.090695 C 366.43876,38.886795 385.2224,47.268185 381.47938,60.530155 C 389.02197,75.494805 369.88821,76.337585 363.31896,88.366965 C 353.75749,88.321405 383.83997,68.924685 364.22133,73.757385 C 365.64829,67.469595 385.63989,58.399545 370.46212,47.005155 C 359.77208,44.644975 371.20684,20.113005 359.29563,26.268095 C 355.64645,30.424115 337.04929,35.689715 348.76803,41.997855 C 353.07291,44.127265 353.87904,47.473845 353.01635,36.356855 C 357.28636,40.667115 360.92111,50.889775 356.36352,61.764055 C 359.61567,51.383565 346.72145,45.327685 340.64673,40.802225 C 346.31357,28.631865 342.39852,31.402135 334.36747,36.766955 C 338.24884,41.860355 342.71977,55.783505 330.9469,54.738505 C 340.15344,45.733005 329.3371,53.406585 331.3223,46.257895 C 324.57139,45.866915 327.18345,36.304255 319.10306,36.430985 C 317.63041,47.525265 307.87039,49.672615 300.79226,56.420775 C 302.35877,50.635095 303.47289,47.261015 294.88958,52.572035 C 281.70903,44.179875 282.10367,63.229915 280.48904,65.611595 C 286.36643,73.562555 269.5307,70.568675 271.09001,80.669495 C 259.53731,80.670465 272.86585,92.073215 273.15824,94.157395 C 257.22365,93.167285 270.60514,111.50227 276.99269,103.68534 C 288.37813,108.35892 274.29399,105.87686 273.0824,112.16719 C 288.61875,117.68501 269.29851,115.05344 262.44172,114.63253 C 247.2074,116.99271 258.34379,121.7574 266.46507,128.3453 C 279.92838,137.27907 244.11649,121.89237 259.50964,129.57797 C 274.27836,140.04101 242.93139,123.18489 237.1382,132.75354 C 232.1018,139.90459 220.63452,143.14946 224.57967,149.68018 C 229.03856,159.96027 247.7055,166.49194 260.75009,159.61812 C 257.27418,169.57908 280.04626,153.55508 269.73644,165.89536 C 256.74601,177.24311 273.10168,168.45763 277.78194,161.56102 C 288.81848,147.74672 280.07755,172.3003 291.46782,161.52395 C 299.99455,151.81184 312.02492,162.30009 301.92082,163.46685 C 298.7818,165.44344 288.29992,180.6816 285.71554,190.2563 C 276.79175,195.23497 262.04589,190.95685 262.29133,197.39305 C 258.19217,207.53671 249.10958,209.02285 240.07149,213.31043 C 234.11467,228.30724 251.06231,214.56587 259.13306,222.50129 C 256.54025,225.39942 244.95869,220.53561 256.53904,227.20856 C 275.00386,235.35917 234.75596,228.63485 249.01933,236.7365 C 261.55859,245.64992 252.4808,249.543 244.16941,240.88425 C 238.74562,225.97953 223.53773,238.02175 212.88741,233.74751 C 203.21045,223.35862 188.11809,228.60383 187.28191,242.56522 C 184.85633,252.17942 182.64373,254.07434 175.02536,246.03981 C 171.14041,242.79954 177.24278,232.31735 171.52899,231.95388 C 169.3814,231.7542 160.09905,215.96962 153.97018,226.76125 C 138.48318,221.10725 120.39497,226.8761 102.72303,218.35379 C 89.334331,221.19327 97.852676,229.90459 102.91194,229.59975 C 110.01776,239.47688 102.2598,230.21307 95.392233,232.73947 C 94.065127,240.57336 88.990227,250.42407 81.630539,241.78083 C 84.654071,242.93814 97.566298,235.56611 83.962248,233.97214 C 78.780257,222.73562 76.215142,228.68501 68.809719,234.83189 C 68.020466,236.86444 68.883107,240.59008 65.501065,239.91329 C 74.974689,243.53618 64.883842,253.21242 63.207857,263.75058 C 65.834325,275.57787 72.147282,265.53331 69.524397,262.59206 C 69.779475,256.98458 69.956347,250.55443 77.04413,250.52341 C 70.408732,236.93375 89.860109,248.69997 83.886464,252.50461 C 84.678133,253.61176 83.418435,258.91198 87.495906,262.1067 C 89.342755,264.34377 73.579036,269.68688 85.540802,275.07216 C 91.066906,273.02166 98.184725,259.15696 96.068394,266.96323 C 96.719299,273.66235 84.898321,279.87611 93.962876,286.99008 C 99.383074,292.77226 97.575956,297.06468 103.13692,297.37776 C 105.30621,310.7176 102.64844,300.76391 95.917987,297.37776 C 87.19393,292.61088 80.758236,321.32507 93.849756,315.12584 C 104.81772,309.15004 122.26586,306.29724 130.28369,310.90273 C 131.72627,316.89646 126.33975,319.14202 125.17026,323.56941 C 135.94332,327.91296 129.41863,335.56148 116.25851,332.53663 C 102.6749,332.85455 83.122463,334.50812 88.999861,353.1242 C 97.307637,366.99107 87.370803,370.71914 73.434656,368.03256 C 77.064585,374.89791 77.468836,377.39305 66.403414,375.09394 C 69.541249,378.92596 45.209856,379.11375 60.124161,380.51144 C 61.365823,387.57404 71.965616,393.89417 70.237865,399.75391 C 63.841907,395.98053 50.853873,407.47415 62.493178,406.74114 C 70.192152,402.05181 74.061515,411.74379 82.11903,414.51276 C 87.37441,412.60208 96.488283,396.17172 93.51168,409.69306 C 101.62936,404.40253 100.12782,406.05732 103.5135,409.16941 C 103.80104,415.69406 87.877329,414.25202 90.203027,423.62948 C 94.338247,424.56556 102.15274,429.20837 108.73881,428.29967 C 111.18001,422.49132 126.82342,404.06062 121.14693,420.75268 C 119.41439,429.76304 131.30635,409.02474 129.45592,423.74192 C 124.28356,424.41726 122.28271,440.6637 126.97501,441.7505 C 131.92839,436.1263 131.90914,429.4582 132.68999,441.52563 C 153.59719,445.10055 178.50609,440.55248 199.05117,435.36106 C 217.97556,433.9263 190.70966,444.25292 203.44989,447.35555 C 217.64351,442.74279 202.19622,451.14928 207.43474,459.722 C 206.26408,462.22685 198.62282,450.01475 190.25249,456.65886 C 205.75513,459.21144 195.20226,460.29823 185.70336,458.11641 C 190.19954,462.02014 178.15719,467.24863 169.79887,459.05006 C 162.53063,461.46766 159.37115,474.43069 153.85709,481.43102 C 154.03396,488.49604 135.85189,503.27888 147.05206,501.90518 C 166.76813,499.03081 145.01751,512.07163 145.47232,519.42961 C 140.3625,525.92058 141.5392,544.27833 128.85433,539.30694 C 117.86232,552.18154 104.67334,567.95305 86.556242,575.54899 C 94.416453,577.22413 113.2314,575.32044 115.43195,567.03007 C 125.85127,566.43347 131.53497,561.60552 132.08844,554.92433 C 135.21182,568.62255 155.05783,567.26679 166.15211,561.16425 C 159.02463,565.41478 158.85257,575.34325 167.91955,566.50763 C 181.19033,565.79613 192.48795,552.98845 194.84011,540.9879 C 201.5934,526.93565 210.85171,544.66822 204.08876,551.78583 C 211.21625,547.04633 239.37727,553.04007 222.85074,557.01675 C 211.44726,547.74445 200.57677,566.16206 192.77189,564.00396 C 182.12035,564.08056 163.37885,578.17691 151.2258,572.52288 C 141.98195,578.07176 128.00009,569.6042 119.41678,576.59504 C 109.97684,583.56559 129.38613,595.56613 117.12358,591.27879 C 107.92065,597.14092 97.342551,602.79613 85.991974,603.75867 C 86.938852,611.02815 104.94647,608.02343 98.58779,622.14157 C 86.896747,631.98282 96.922631,631.89199 108.32613,632.75268 C 110.91052,644.07065 97.561497,630.95446 95.12873,639.47825 C 78.80314,646.35057 77.852632,626.92759 73.396159,624.90696 C 76.744519,629.58682 69.714489,640.69906 59.899179,639.55359 C 63.750457,627.39506 49.29096,627.36887 42.07684,637.79729 C 30.21737,637.41224 38.324227,652.93513 29.894909,650.94911 C 25.377087,639.53079 16.88041,662.41171 25.195396,666.82842 C 37.587879,665.15084 32.454019,658.88086 44.78396,663.91336 C 41.110715,658.94677 45.101579,659.41541 51.063213,661.52216 C 57.198088,668.89922 77.571087,650.46733 83.736057,663.09183 C 81.689499,657.94962 91.159538,651.37002 98.324311,658.72066 C 114.91821,656.38813 93.908717,667.87936 90.767295,660.17827 C 88.637715,665.28603 85.625011,680.66886 83.209069,668.35988 C 81.440448,679.26056 63.714381,677.64039 54.522299,684.01552 C 50.36897,686.03379 41.310444,691.79077 43.805802,694.8886 C 60.260114,707.33041 27.992732,703.24731 32.301239,713.15911 C 37.021211,715.10078 38.527539,719.9767 37.941622,726.94599 C 45.296489,722.00567 57.626406,702.68052 56.891292,724.74236 C 44.175162,730.52576 65.414433,727.84263 62.71816,735.80198 C 71.859735,730.56265 86.579125,721.40175 94.113258,722.01384 C 99.556317,721.77712 113.54781,709.9154 127.98927,709.38572 C 125.79231,715.89463 106.72232,715.31014 102.76032,725.938 C 105.94508,732.8811 96.876896,727.34779 93.286698,734.30741 C 91.842914,732.09434 85.80307,733.07347 79.675435,738.86513 C 87.699245,742.1149 77.957319,750.84773 68.395855,748.65503 C 68.026471,751.57953 74.90009,759.98244 62.380082,759.52685 C 55.538931,767.55195 64.306327,761.88337 71.779108,762.6283 C 85.07638,762.54226 90.136853,748.86077 106.03171,750.74746 C 118.15829,748.45173 134.29499,743.44566 133.51658,732.55111 C 134.4454,744.72026 147.94959,734.39581 144.34494,743.46115 C 135.69548,753.7878 115.62446,755.824 104.97896,765.91629 C 95.498091,773.8423 99.476925,775.33813 109.34036,769.09214 C 114.15061,767.59875 137.54352,754.86029 129.41863,761.61928 C 123.19349,775.0786 98.167877,777.95269 100.50561,789.75382 C 103.37275,791.41082 112.58888,791.14182 114.04112,785.23294 C 120.13868,771.89214 123.12973,788.10362 129.11781,780.41342 C 132.84038,776.17728 146.03177,778.36416 145.8489,770.2877 C 154.4009,774.54161 145.63592,783.00068 154.34676,787.40072 C 164.20301,782.42201 165.49879,780.70645 172.31828,784.41173 C 174.11458,774.51299 182.22505,780.58455 185.2895,771.70795 C 179.32062,763.81686 195.96386,773.55541 199.69001,767.93338 C 205.97893,778.03047 208.98681,773.85418 215.33103,766.43897 C 222.16254,759.29013 228.12296,769.49606 235.93503,767.29848 C 232.06809,756.19717 247.55148,748.1469 253.26767,759.52685 C 253.45055,759.05341 256.91325,744.64248 255.67398,742.04074 C 262.35269,750.52254 266.19438,741.28999 275.75221,739.61242 C 283.30202,734.2846 287.98831,723.30764 280.86561,715.13908 C 282.48988,705.85251 266.56614,716.07512 271.76617,707.21795 C 278.48337,713.95776 300.16903,702.91606 296.84471,711.92643 C 276.53788,724.49958 296.42121,727.6943 305.0033,721.60269 C 320.16424,724.1732 312.82259,711.73745 324.96842,709.72162 C 340.10533,711.87508 325.13086,702.13048 331.99969,702.28604 C 332.84068,684.58475 350.72315,703.87254 353.12945,690.36792 C 365.09,689.6458 368.76083,682.82601 374.14737,675.16071 C 366.8719,676.23445 362.32035,661.98593 372.45572,669.36913 C 383.7389,655.27616 406.04781,661.9227 419.79142,656.8902 C 427.35325,655.83564 423.22041,651.55051 429.71743,652.77957 C 421.92821,661.25075 438.07815,661.95124 441.82476,654.01249 C 444.65459,649.06477 442.35177,640.57354 439.71924,631.03342 C 442.14361,633.79661 452.71813,645.86164 450.66075,654.57315 C 439.70363,667.50493 456.41905,652.93631 460.21018,649.86467 C 460.73114,641.19987 458.18527,641.79773 467.72989,634.65856 C 464.63297,643.64849 461.85728,646.20956 474.15955,643.32698 C 485.34887,648.00542 493.95745,654.50481 503.48643,644.70917 C 499.82522,651.97024 514.41226,642.4195 512.05891,648.3701 C 516.4456,655.59892 527.20781,633.77506 514.46519,631.96859 C 513.04068,629.28317 513.51229,626.61671 514.46519,623.97203 C 512.51009,626.97777 504.75937,626.59634 506.94549,617.13533 C 514.42912,613.62391 517.76424,621.0834 516.57073,607.4579 C 525.50534,591.79156 541.93682,577.46785 533.2645,558.02576 C 540.92738,545.74775 541.42065,532.902 547.06346,520.13863 C 551.44896,513.28395 565.1156,497.61882 555.63592,491.89285 C 554.67823,476.35689 557.00993,459.66094 547.96584,446.19703 C 551.91217,431.25159 539.51727,430.76138 533.45217,419.40661 C 536.63693,407.26237 550.1291,417.55555 553.9058,412.53157 C 553.57133,410.77161 551.2709,410.82177 549.88365,410.51452 C 536.84988,405.43311 548.87179,389.33036 550.55981,378.75488 C 544.25049,367.79339 528.96561,361.21979 529.65504,344.19405 C 533.54,331.71517 528.74663,328.55389 530.2193,317.33045 C 519.68808,315.94827 509.11838,304.56127 515.36756,291.28734 C 517.052,274.56741 534.4508,298.60922 544.88214,288.41054 C 547.64458,281.08382 526.65436,274.01032 529.9558,269.84124 L 528.0753,268.60857 C 527.14403,266.02958 524.42732,265.70197 523.03767,268.08492 C 521.7888,270.85026 517.71733,266.77447 517.135,270.40196 C 518.03619,273.79999 513.87807,273.77721 511.98429,275.40801 C 510.62595,273.53562 507.57596,277.49219 506.457,274.13705 C 505.36454,272.08074 502.95704,271.47931 501.79477,273.8012 C 500.30288,275.88877 498.24908,276.95157 495.70321,276.04288 C 493.59289,277.15003 490.50198,276.80327 489.12438,278.91968 C 484.61133,280.00768 484.39598,274.06532 481.67925,271.89658 C 479.62306,267.95334 482.03779,264.05445 483.78476,260.64915 C 484.52591,256.9068 483.20367,252.09437 479.94911,249.96391 C 477.47423,249.35763 473.58082,245.23629 472.24173,249.44002 C 470.79673,252.28337 469.07741,247.75542 467.27872,247.2354 C 462.8535,244.74002 460.10549,239.86798 460.28597,234.83189 C 459.02867,232.38205 455.2568,230.07931 457.38999,226.94783 C 456.29271,223.78776 456.08695,219.32693 452.99124,217.49525 C 449.94728,217.92682 451.58356,213.45145 449.34449,212.18898 C 447.01639,210.82352 445.99974,207.84155 443.9303,206.50977 C 440.32323,207.17203 437.95542,201.50494 434.38086,203.52054 C 432.23082,207.84882 428.54196,211.11527 426.22108,215.36455 C 424.30084,217.94475 421.75256,220.16632 418.47637,220.74497 C 418.39576,223.27599 416.66922,224.76454 414.71652,226.20052 C 412.42449,229.24598 419.86359,228.3397 418.06248,231.95388 C 419.53876,233.59437 421.96312,235.40812 420.5061,238.08161 C 420.34486,240.00052 422.00281,243.51462 418.73984,243.87325 C 416.41296,243.60185 414.91382,245.15729 412.64829,244.88226 C 412.39803,247.47457 411.44275,249.91351 408.81384,250.8222 C 408.46251,253.14311 410.95785,255.87622 408.36146,257.77235 C 407.86696,260.8023 405.81198,264.3067 402.30839,263.90009 C 399.91291,266.22562 398.52448,263.57006 396.74379,262.21913 C 396.5176,258.2759 392.79024,261.85808 390.61495,260.61208 C 386.71912,259.42715 391.93479,258.37379 391.40541,255.9036 C 390.49943,252.80096 387.08366,255.38843 386.10311,257.17456 C 383.54881,259.03265 382.41785,262.71055 379.07307,263.26522 C 376.77626,262.22495 374.67674,260.60966 372.04186,261.80767 C 368.80174,262.23222 368.64654,257.36478 365.12371,258.22089 C 362.32756,256.20383 363.93979,251.58259 360.34839,250.00098 C 357.54505,252.72343 357.4127,248.62583 355.83657,247.12418 C 349.44059,245.73594 342.45268,246.29328 336.32381,244.28446 C 333.94397,239.59658 336.04709,233.09931 332.03695,229.26391 C 327.45656,228.59438 324.72661,224.45971 322.29866,221.00668 C 321.30123,218.40976 321.07022,214.86489 317.44872,214.84212 C 312.35939,213.51858 309.96993,208.26609 306.77075,204.60394 C 305.21025,202.19481 302.93869,200.24101 300.94267,198.32669 C 304.4378,196.99007 298.94543,194.72682 300.19067,193.3948 C 303.54148,192.91186 307.05107,192.08556 308.80045,188.98656 C 311.53042,189.47555 314.26038,187.52659 313.27498,184.42759 C 313.57696,181.54255 317.00837,179.90932 319.10306,178.07644 C 321.1701,175.12913 322.18675,177.92693 324.17917,178.74838 C 328.25185,178.26641 332.36181,179.01736 336.39841,178.41229 C 336.0928,176.08676 340.59258,176.77083 340.94754,174.11526 C 343.44888,168.61901 349.39969,166.92836 353.95725,163.65344 C 356.02787,162.73651 354.02099,157.51262 352.2656,160.5903 C 349.64392,163.47412 347.79346,158.69876 344.93359,158.61031 C 342.05683,157.09292 338.71326,157.20657 335.64642,157.63813 C 334.68872,153.82647 330.98902,152.14309 328.3517,149.68018 C 330.17569,147.91901 329.62343,145.13066 332.30045,143.7761 C 333.7587,141.46487 333.31111,136.28073 337.15038,136.07984 C 341.28201,136.45762 343.21186,141.04881 346.55061,142.80513 C 350.52102,145.48347 352.90689,139.99061 356.51393,139.25542 C 359.13319,137.9927 360.78513,133.53671 364.22133,135.66839 C 366.85865,135.74011 369.60305,134.90097 372.04186,136.49106 C 376.21196,137.01713 373.94282,132.06972 375.20013,129.80284 C 376.21077,126.51604 376.2577,122.22241 377.83262,119.56443 C 380.43141,118.35332 382.31798,116.27181 382.26865,113.25035 C 385.12373,111.20228 385.89616,107.28666 386.17891,104.09655 C 384.91197,101.21152 386.47247,98.124375 386.3293,95.129325 C 387.94753,93.517675 389.9977,92.335165 390.31413,89.673785 C 387.97042,87.742755 393.69141,85.594125 389.33718,84.518235 C 388.62733,82.424605 391.82288,80.766185 392.38236,78.651235 C 394.35795,76.075885 395.68501,71.254995 399.90206,72.785445 C 402.07135,70.559125 403.71848,74.135155 405.73017,71.926935 C 406.59763,71.216735 407.79716,70.462275 408.96301,70.693035 L 410.46697,69.460335 C 407.18117,59.929945 426.94655,46.041475 437.42604,40.802225 C 456.41541,36.564885 440.62041,24.829755 431.67377,25.895075 C 418.37291,18.709305 412.17065,2.9652052 393.84903,3.5140152 z M 266.80317,234.68116 C 265.21259,237.29359 279.9428,231.9277 280.00058,236.96137 C 275.5152,242.26862 260.66828,240.46335 266.80317,234.68116 z M 102.98651,245.44201 C 104.79848,245.43717 106.87392,246.09482 108.25032,246.89932 C 110.02618,259.42254 100.1916,250.66082 101.3322,245.70371 C 101.84233,245.54233 102.38254,245.4454 102.98651,245.44201 z M 309.8917,255.41824 C 311.38243,255.41461 313.63834,255.73277 316.96023,256.42749 C 318.45336,263.97182 311.28377,286.133 310.04211,267.93541 C 311.39927,261.40834 303.42838,255.43738 309.8917,255.41824 z M 164.76128,268.19712 C 167.2554,268.07644 171.07782,270.26917 173.25795,274.6607 C 164.12239,283.00637 185.55418,287.51857 172.28097,291.28734 C 163.16108,291.27644 160.9232,274.95003 165.85132,277.64993 C 160.83177,271.43012 161.93385,268.33354 164.76128,268.19712 z M 289.10002,282.54476 C 290.37176,282.55905 292.08144,283.71879 294.25071,286.87885 L 293.64915,287.21495 L 293.46025,288.11176 C 285.79253,297.12308 284.54971,282.4946 289.10002,282.54476 z M 177.88286,290.42881 C 179.04753,290.23156 180.32888,291.79548 181.11694,296.81704 C 172.65396,302.7749 174.90626,290.92387 177.88286,290.42881 z M 265.86349,293.1561 C 266.77911,293.11417 268.02917,293.50043 269.77375,294.5012 C 271.22836,293.69162 271.70361,295.45158 270.45111,296.06973 C 266.92831,302.7594 267.30728,309.18469 260.4493,301.89844 C 264.29939,301.49547 261.8979,293.33541 265.86349,293.1561 z M 403.62462,323.23332 C 404.68101,323.45213 407.71174,323.93168 406.89602,325.73695 C 403.07361,336.90174 388.09913,330.42628 403.62462,323.23332 z M 166.07751,338.62704 C 167.33842,338.68811 170.03349,346.44422 171.07782,346.54817 C 171.46163,344.88975 174.26017,343.98227 173.82222,346.54817 C 169.86504,360.02904 167.39496,352.88018 165.51325,344.75478 C 165.20763,340.15268 165.50121,338.59966 166.07751,338.62704 z M 161.97837,352.22738 C 162.42233,352.22399 162.87954,352.28966 163.37044,352.45104 C 165.1932,361.43982 163.66278,370.19064 160.51173,375.95369 C 153.23025,382.99956 142.308,368.32674 144.38225,369.93839 C 153.47449,369.88702 155.31531,352.28844 161.97837,352.22738 z M 394.3002,354.61881 C 395.09188,354.57931 396.0255,354.82308 397.00727,355.47831 C 403.84,363.48207 406.6289,370.17877 396.18071,360.52167 C 388.98947,363.36237 390.02538,354.83157 394.3002,354.61881 z M 316.35867,355.32904 C 317.0565,355.36127 317.91555,355.71748 318.98996,356.44928 C 316.09157,364.16952 322.3552,376.98426 326.35928,379.5034 C 331.53646,376.33752 338.19713,375.63189 336.3611,380.43729 C 323.95777,384.87195 333.1932,396.45039 328.91597,397.17613 C 319.772,400.28943 321.42275,392.1221 319.78045,390.48767 C 321.65856,379.17821 317.38857,378.57194 312.56151,372.51617 C 314.82104,370.03774 311.47386,355.09812 316.35867,355.32904 z M 392.68315,370.75984 C 406.63133,387.69471 380.56018,371.34335 392.68315,370.75984 z M 165.58784,383.61287 C 171.49773,383.54599 174.30828,386.47028 174.38652,394.22397 C 170.40166,404.53047 192.58178,404.14179 194.01234,407.07724 C 181.46948,412.70506 203.62916,428.20154 185.70336,428.0748 C 177.37271,418.86018 190.41612,406.46974 174.64878,405.99383 C 164.39429,405.93398 157.8648,391.94158 142.8037,391.83277 C 145.92831,384.31705 156.77592,394.86126 151.52656,386.60186 C 157.3775,384.78447 162.04215,383.65358 165.58784,383.61287 z M 394.75138,391.68327 C 395.18812,391.69417 395.61883,391.7407 396.10493,391.7957 C 391.0697,411.4913 381.2135,391.35687 394.75138,391.68327 z M 296.84471,473.09867 C 298.12126,473.13454 299.06574,473.8186 299.43871,475.86304 C 284.895,479.51453 284.62428,493.60507 287.55757,502.95248 C 280.98595,505.99066 286.27741,511.5252 274.0979,508.36998 C 272.56627,514.2394 262.70882,532.4668 264.47266,517.03817 C 275.30465,507.40628 249.72799,510.02356 266.16429,503.84929 C 277.90226,505.97152 283.5631,497.80298 276.61609,488.08119 C 286.42058,487.80858 281.56465,479.46679 286.9187,474.14501 C 289.96869,475.48526 293.67562,473.37856 296.28044,473.13575 C 296.47654,473.11782 296.66183,473.09286 296.84471,473.09867 z M 514.91639,622.81477 C 514.77441,623.13997 514.63124,623.54538 514.50251,623.89795 C 514.69981,623.57393 514.87068,623.2032 514.91639,622.81477 z M 130.24519,673.33025 C 130.35589,673.30508 130.45695,673.32183 130.58448,673.33025 C 131.72145,673.39356 133.57072,674.54382 136.22365,677.43953 C 137.26319,678.56699 141.10846,678.4701 139.87041,680.65218 C 131.6192,686.11283 126.84027,673.85756 130.24519,673.33025 z " />
</svg>
